<?xml version="1.0" encoding="utf-8"?>
<!-- Generator: Adobe Illustrator 26.0.1, SVG Export Plug-In . SVG Version: 6.00 Build 0)  -->
<svg version="1.1" id="Layer_1" xmlns="http://www.w3.org/2000/svg" xmlns:xlink="http://www.w3.org/1999/xlink" x="0px" y="0px"
	 viewBox="0 0 20 20" style="enable-background:new 0 0 20 20;" xml:space="preserve">
<style type="text/css">
	.st0{fill:#4BC580;stroke:#4BC580;stroke-miterlimit:10;}
	.st1{fill:#4BC580;stroke:#4BC580;stroke-width:2;stroke-miterlimit:10;}
</style>
<g>
	<path class="st1" d="M2.5,10.21c0-2.6,0.7-4.64,2.1-6.11s3.2-2.21,5.41-2.21c1.45,0,2.75,0.35,3.92,1.04
		c1.16,0.69,2.05,1.66,2.66,2.89c0.61,1.24,0.91,2.64,0.91,4.21c0,1.59-0.32,3.01-0.96,4.27c-0.64,1.26-1.55,2.21-2.73,2.85
		c-1.18,0.65-2.45,0.97-3.81,0.97c-1.48,0-2.8-0.36-3.96-1.07C4.88,16.33,4,15.36,3.4,14.12S2.5,11.59,2.5,10.21z M4.64,10.24
		c0,1.89,0.51,3.38,1.52,4.47s2.29,1.63,3.82,1.63c1.56,0,2.85-0.55,3.86-1.65s1.51-2.66,1.51-4.68c0-1.28-0.22-2.39-0.65-3.34
		c-0.43-0.95-1.06-1.69-1.89-2.21c-0.83-0.52-1.76-0.79-2.8-0.79c-1.47,0-2.73,0.5-3.79,1.51S4.64,7.88,4.64,10.24z"/>
</g>
</svg>
